<?xml version="1.0" encoding="UTF-8" ?>
<!DOCTYPE svg PUBLIC "-//W3C//DTD SVG 1.1//EN" "http://www.w3.org/Graphics/SVG/1.1/DTD/svg11.dtd">
<svg width="550pt" height="330pt" viewBox="0 0 550 330" version="1.1" xmlns="http://www.w3.org/2000/svg">
<path fill="#ffffff" d=" M 0.00 0.00 L 550.00 0.00 L 550.00 330.00 L 0.00 330.00 L 0.00 0.00 Z" />
<path fill="#619800" d=" M 237.04 13.17 C 243.46 9.13 250.56 5.79 258.18 5.00 C 262.44 5.07 267.40 4.01 270.74 7.39 C 268.76 9.75 266.65 12.05 265.33 14.87 C 266.97 13.94 268.49 12.82 269.95 11.63 C 270.58 11.56 271.85 11.41 272.48 11.34 C 272.80 12.14 273.42 13.74 273.73 14.54 C 275.36 12.76 276.63 10.68 278.04 8.72 C 284.13 10.32 288.86 14.66 294.11 17.91 C 298.53 21.07 303.80 23.34 307.07 27.87 C 308.78 30.20 310.29 32.68 312.00 35.03 C 314.45 38.28 314.44 42.71 316.88 45.97 C 318.61 48.22 320.57 50.27 322.44 52.40 C 322.94 58.28 317.98 62.00 315.63 66.81 C 318.32 68.30 321.12 69.59 323.92 70.87 C 322.42 73.89 320.88 76.89 319.74 80.06 C 318.67 83.30 315.50 85.08 312.71 86.67 C 304.61 91.08 296.85 96.09 289.19 101.22 C 287.01 98.98 284.74 96.28 281.38 96.06 C 277.15 96.58 273.10 97.97 268.95 98.88 C 271.39 91.62 270.71 83.74 273.33 76.52 C 274.58 72.78 274.47 68.22 272.13 64.96 C 266.87 59.88 259.12 61.47 252.57 60.16 C 245.18 58.68 237.50 58.53 230.38 55.87 C 231.71 48.64 233.08 41.36 232.70 33.98 C 233.06 32.44 231.38 32.26 230.38 31.76 C 225.94 30.08 221.44 28.56 217.01 26.87 C 222.26 20.44 230.22 17.52 237.04 13.17 Z" />
<path fill="#619800" d=" M 202.27 36.37 C 206.69 34.09 211.48 32.36 215.22 28.94 C 220.24 30.72 225.24 32.57 230.23 34.43 C 230.17 41.44 229.27 48.38 227.80 55.23 C 223.80 56.54 219.87 58.05 216.08 59.89 C 216.57 63.94 217.22 67.98 217.48 72.06 C 217.70 74.99 219.22 78.01 217.98 80.89 C 216.10 85.77 213.52 90.38 212.15 95.45 C 211.24 98.81 208.65 101.32 207.07 104.35 C 201.44 103.19 195.68 103.52 189.98 103.48 C 185.82 103.39 181.73 104.48 177.82 105.80 C 172.65 107.73 170.65 113.27 166.99 116.93 C 162.71 121.59 156.48 123.45 150.94 126.10 C 149.54 119.92 147.94 113.79 146.68 107.58 C 145.74 100.86 145.11 94.09 144.31 87.35 C 148.81 83.61 154.34 80.49 156.74 74.88 C 158.44 69.68 159.21 63.98 162.65 59.53 C 162.16 55.92 161.07 52.27 161.91 48.63 C 164.56 48.52 167.19 48.04 169.84 48.12 C 172.02 49.28 173.72 51.29 176.11 52.03 C 179.61 52.08 182.43 49.40 185.90 49.31 C 188.54 49.18 191.19 49.46 193.83 49.55 C 196.17 44.92 198.45 39.96 202.27 36.37 Z" />
<path fill="#619800" d=" M 110.47 49.31 C 117.94 42.90 125.63 36.31 135.05 32.96 C 140.03 32.84 145.19 32.75 149.95 34.43 C 151.31 34.77 152.06 36.05 152.93 37.03 C 154.79 39.51 157.14 41.55 159.57 43.45 C 159.78 44.16 160.20 45.58 160.41 46.29 C 158.25 50.29 159.00 54.70 159.99 58.90 C 155.32 64.79 156.59 73.56 150.94 78.77 C 147.96 81.42 144.70 83.74 141.66 86.32 C 142.76 96.30 143.30 106.41 145.96 116.14 C 148.45 125.25 149.75 134.59 151.02 143.93 C 148.50 146.21 145.98 148.48 143.42 150.72 C 138.64 147.65 133.17 150.70 128.02 150.00 C 119.67 149.35 111.27 149.37 102.95 148.48 C 100.12 148.32 97.05 146.65 94.42 148.39 C 88.17 151.55 81.96 154.78 75.81 158.10 C 74.06 157.36 72.32 156.61 70.58 155.88 C 70.33 153.81 71.03 151.39 69.63 149.64 C 65.36 143.81 60.10 137.54 52.49 136.48 C 56.04 130.11 58.81 123.37 61.82 116.75 C 63.26 109.96 62.76 102.71 65.34 96.18 C 67.44 91.22 73.68 89.71 75.19 84.38 C 76.43 80.03 77.91 75.63 80.94 72.15 C 80.97 70.81 81.00 69.47 81.03 68.12 C 83.71 65.75 86.02 62.87 89.29 61.26 C 92.59 59.64 96.06 58.40 99.58 57.38 C 104.10 56.20 107.43 52.65 110.47 49.31 Z" />
<path fill="#619800" d=" M 218.88 61.26 C 222.05 59.98 225.25 58.77 228.50 57.72 C 232.46 59.49 236.71 60.51 241.02 60.99 C 247.72 61.77 254.32 63.49 261.10 63.58 C 264.53 63.59 267.73 64.89 270.61 66.66 C 273.17 73.22 268.91 79.47 268.64 86.02 C 268.41 91.42 266.72 96.55 265.77 101.83 C 271.09 101.40 276.12 99.44 281.38 98.66 C 284.62 99.09 286.61 102.19 288.23 104.74 C 290.31 109.43 291.83 114.36 292.77 119.41 C 284.84 126.24 277.29 133.51 269.69 140.68 C 265.75 141.79 261.47 141.86 257.77 143.83 C 251.87 146.96 244.85 146.04 238.56 144.77 C 233.17 143.49 227.45 143.68 222.25 141.64 C 219.69 139.67 217.76 136.96 214.98 135.24 C 211.69 126.83 211.28 117.66 209.43 108.89 C 208.32 103.95 213.50 100.97 214.48 96.54 C 215.98 90.32 219.92 84.95 221.14 78.67 C 220.10 72.91 219.66 67.07 218.88 61.26 Z" />
<path fill="#619800" d=" M 327.94 68.01 C 331.47 67.69 334.33 69.99 337.20 71.68 C 338.47 74.85 339.80 78.44 343.32 79.71 C 346.30 82.10 349.96 79.59 353.24 80.85 C 357.51 82.13 362.10 82.50 366.06 84.70 C 362.92 88.06 358.14 89.86 356.14 94.23 C 353.10 100.13 350.90 106.49 347.05 111.96 C 344.49 115.42 340.47 117.54 338.21 121.27 C 335.13 125.44 333.62 130.53 330.60 134.72 C 328.13 137.81 323.82 137.57 320.25 137.57 C 318.10 135.81 315.93 134.07 313.53 132.68 C 312.98 133.12 311.89 134.00 311.35 134.44 C 307.56 129.14 312.28 121.57 307.08 116.98 C 303.37 114.57 298.80 116.07 294.97 117.36 C 294.10 112.49 292.18 107.93 290.63 103.26 C 298.43 98.13 306.24 93.01 314.45 88.57 C 317.58 86.76 321.25 84.73 322.25 80.97 C 323.75 76.48 326.12 72.36 327.94 68.01 Z" />
<path fill="#619800" d=" M 377.63 76.55 C 380.11 73.98 384.34 73.66 387.38 75.39 C 387.96 78.56 388.79 81.68 389.17 84.89 C 390.52 86.81 391.87 88.78 393.74 90.25 C 398.84 94.17 401.97 100.02 404.44 105.84 C 406.78 105.31 409.58 103.12 411.73 105.19 C 413.03 106.08 414.28 107.02 415.58 107.92 C 415.99 109.18 416.41 110.43 416.83 111.68 C 413.67 114.94 409.82 117.45 406.86 120.90 C 404.20 123.97 400.92 126.63 399.47 130.55 C 395.58 139.71 390.74 148.41 386.45 157.38 C 383.95 162.34 384.44 167.95 384.99 173.28 C 381.46 176.31 377.94 179.37 374.68 182.70 C 370.50 187.82 363.07 186.69 357.90 190.29 C 355.83 187.65 354.28 184.43 351.47 182.47 C 347.15 181.73 342.53 182.21 338.67 179.70 C 337.48 175.66 336.95 170.37 332.69 168.30 C 328.94 166.12 324.52 167.80 320.58 168.38 C 318.53 162.89 316.74 156.92 318.23 151.06 C 319.18 147.45 319.72 143.75 320.16 140.05 C 323.40 139.98 326.89 140.45 329.77 138.58 C 332.27 137.53 333.59 135.02 334.82 132.76 C 337.44 127.66 339.70 122.05 344.26 118.32 C 351.63 112.63 354.33 103.33 358.41 95.36 C 360.19 91.26 365.06 90.11 367.47 86.50 C 370.25 82.59 374.34 79.98 377.63 76.55 Z" />
<path fill="#619800" d=" M 178.52 108.33 C 187.43 104.96 197.27 105.59 206.54 106.88 C 208.51 116.95 209.02 127.46 212.96 137.03 C 215.03 138.39 216.98 139.93 218.69 141.73 C 218.06 145.82 218.21 150.26 215.90 153.88 C 214.24 156.56 212.56 159.22 210.85 161.87 C 204.49 162.14 198.42 164.26 192.09 164.87 C 187.98 165.02 186.00 169.16 183.87 172.06 C 182.71 171.92 181.54 171.79 180.38 171.67 C 178.32 167.33 177.34 162.62 176.46 157.93 C 170.06 157.25 163.89 159.99 157.45 159.26 C 153.73 156.57 149.71 154.32 145.72 152.06 C 148.39 149.68 151.06 147.29 153.73 144.92 C 152.99 139.50 152.22 134.09 151.42 128.68 C 157.84 125.63 165.07 123.38 169.79 117.74 C 172.63 114.57 174.29 109.98 178.52 108.33 Z" />
<path fill="#619800" d=" M 467.18 117.56 C 468.26 115.20 470.06 113.13 472.80 112.83 C 477.07 112.74 481.39 113.25 485.45 114.61 C 485.88 114.21 486.74 113.42 487.17 113.02 C 491.82 114.65 496.72 116.33 500.31 119.86 C 502.34 122.65 503.39 126.00 505.05 129.01 C 506.56 132.08 508.64 134.91 509.59 138.24 C 509.77 140.24 508.98 142.19 508.76 144.16 C 511.87 144.81 515.03 144.42 518.17 144.19 C 521.86 145.79 525.88 146.61 529.47 148.47 C 533.53 150.92 537.35 153.75 541.27 156.42 C 541.52 157.29 541.76 158.17 542.02 159.05 C 540.47 163.66 544.61 167.12 544.85 171.53 C 543.22 171.76 541.59 171.97 539.96 172.17 C 537.80 178.86 534.89 185.25 531.82 191.57 C 525.73 189.62 520.10 186.43 513.91 184.75 C 518.88 188.81 525.18 190.67 530.50 194.18 C 526.83 200.41 523.52 206.85 520.39 213.37 C 517.79 218.85 511.88 221.19 506.86 223.88 C 502.66 226.10 497.94 223.84 494.27 221.62 C 490.52 219.34 486.03 220.63 482.00 221.17 C 481.66 218.50 481.63 215.81 481.77 213.13 C 478.46 216.35 473.97 216.96 469.56 216.48 C 473.19 208.47 479.76 201.22 479.56 191.98 C 472.97 183.64 466.22 175.44 459.60 167.12 C 455.22 165.59 450.62 164.91 445.99 164.91 C 445.67 157.67 446.73 150.51 447.56 143.35 C 448.16 138.02 446.14 133.02 445.08 127.90 C 448.92 127.14 452.87 127.46 456.73 127.92 C 456.37 131.43 455.45 134.85 454.09 138.11 C 454.29 138.55 454.70 139.44 454.91 139.89 C 456.78 136.12 459.09 132.44 459.70 128.20 C 460.12 124.72 462.85 122.23 465.72 120.57 C 467.23 121.30 468.75 122.02 470.29 122.73 C 471.03 120.15 468.94 118.88 467.18 117.56 Z" />
<path fill="#619800" d=" M 403.02 129.19 C 407.23 123.38 412.71 118.68 418.14 114.04 C 420.22 116.96 423.51 118.52 426.23 120.74 C 430.82 124.78 436.58 127.39 442.55 128.60 C 444.15 134.34 445.62 140.26 444.65 146.26 C 443.58 152.47 443.48 158.76 443.31 165.04 C 440.20 164.86 437.10 164.72 434.00 164.78 C 432.77 167.44 431.55 170.11 430.30 172.77 C 426.13 172.07 421.56 171.65 418.10 168.97 C 415.28 167.06 412.83 164.68 410.11 162.64 C 409.54 164.11 408.98 165.58 408.44 167.05 C 401.21 166.72 393.96 166.77 386.72 166.42 C 387.60 158.72 392.05 152.20 395.30 145.36 C 398.14 140.10 400.23 134.47 403.02 129.19 Z" />
<path fill="#619800" d=" M 294.34 121.27 C 297.36 118.34 301.85 117.87 305.82 118.66 C 308.37 124.81 304.99 132.91 311.08 137.64 C 311.80 137.13 313.23 136.10 313.95 135.59 C 315.22 136.70 316.48 137.83 317.74 138.97 C 317.18 142.82 316.67 146.68 315.72 150.46 C 314.24 157.10 315.90 163.93 318.49 170.07 C 316.18 174.27 316.24 179.11 316.19 183.76 C 312.13 183.80 308.05 183.57 303.99 183.87 C 300.13 184.21 296.84 187.54 292.80 186.34 C 288.46 185.09 284.12 183.85 279.89 182.26 C 275.27 181.34 270.55 181.25 265.86 181.23 C 261.01 181.36 257.69 177.08 253.17 176.09 C 249.25 175.19 245.25 173.15 241.16 174.34 C 239.18 175.61 238.07 177.83 236.60 179.61 C 234.58 179.05 232.10 177.23 230.24 179.16 C 226.64 181.39 225.01 185.38 224.23 189.36 C 222.90 189.00 221.56 188.65 220.23 188.30 C 221.67 182.71 224.61 177.37 224.69 171.52 C 221.88 167.56 217.03 165.77 213.31 162.80 C 214.99 159.97 216.81 157.24 218.51 154.43 C 220.47 151.33 220.51 147.56 221.06 144.05 C 225.51 145.48 230.14 146.13 234.77 146.70 C 240.45 147.81 246.22 149.06 252.04 148.30 C 256.15 148.14 259.46 145.26 263.45 144.55 C 266.30 143.68 269.85 144.55 272.05 142.14 C 279.14 134.83 286.84 128.15 294.34 121.27 Z" />
<path fill="#619800" d=" M 43.52 147.48 C 45.53 144.53 47.39 141.43 50.08 139.04 C 58.24 138.73 63.43 145.73 67.91 151.48 C 67.99 153.50 67.88 155.55 68.30 157.53 C 70.73 158.91 73.37 159.85 75.94 160.91 C 82.76 157.16 89.74 153.73 96.58 150.04 C 106.92 152.23 117.55 151.70 128.02 152.60 C 132.74 153.28 137.53 150.68 142.09 152.71 C 141.58 161.41 140.17 170.37 142.18 178.95 C 145.39 182.94 150.39 185.26 153.29 189.61 C 158.10 196.49 163.15 203.21 167.87 210.15 C 171.33 217.54 173.89 225.32 177.06 232.84 C 178.64 236.32 179.06 240.13 179.53 243.89 C 176.10 243.81 172.57 243.59 169.51 241.88 C 169.65 240.82 169.93 238.69 170.07 237.63 C 168.55 238.08 167.17 238.87 165.84 239.70 C 161.48 240.39 157.13 239.28 153.07 237.78 C 151.88 237.48 151.31 236.33 150.94 235.28 C 149.35 230.74 149.23 225.87 147.92 221.26 C 145.47 224.14 142.69 227.57 143.28 231.60 C 144.25 232.43 145.31 233.14 146.46 233.72 C 146.89 235.43 147.29 237.13 147.67 238.86 C 144.43 237.86 142.34 235.15 140.02 232.89 C 137.88 230.70 134.89 229.73 132.28 228.23 C 131.76 229.01 131.23 229.79 130.71 230.57 C 133.32 233.15 136.24 235.62 137.58 239.15 C 134.44 239.81 131.24 239.56 128.11 239.04 C 127.60 235.63 127.14 232.19 127.11 228.74 C 125.69 228.74 124.26 228.75 122.84 228.75 C 122.79 231.38 122.74 234.00 122.69 236.63 C 120.37 236.51 118.06 236.34 115.75 236.07 C 115.54 235.43 115.11 234.15 114.90 233.51 C 111.95 231.91 109.68 229.05 106.27 228.42 C 104.60 231.69 104.63 235.36 104.71 238.94 C 99.73 239.53 94.96 241.18 90.00 241.87 C 87.21 242.38 84.33 242.55 81.63 243.48 C 77.08 247.09 73.41 251.70 68.77 255.22 C 68.58 254.53 68.19 253.16 68.00 252.48 C 64.54 250.13 60.90 247.92 58.19 244.67 C 57.64 244.42 56.54 243.91 55.98 243.66 C 54.39 241.13 53.05 236.60 49.13 238.40 C 49.09 237.78 49.01 236.55 48.96 235.94 C 51.39 232.48 54.44 229.51 57.12 226.25 C 56.74 225.76 55.98 224.79 55.60 224.30 C 52.79 226.99 50.15 229.84 47.50 232.68 C 45.88 231.00 44.29 229.28 42.71 227.56 C 45.03 224.65 47.30 221.71 49.61 218.79 C 48.73 218.01 47.85 217.22 46.97 216.43 C 44.15 219.00 41.43 221.68 38.58 224.22 C 35.54 221.79 33.14 218.72 30.90 215.57 C 30.44 218.52 27.41 221.55 29.35 224.49 C 33.08 231.36 35.47 238.84 39.20 245.70 C 42.03 251.96 46.63 257.48 47.87 264.38 C 45.87 265.94 43.82 267.80 41.14 267.92 C 34.97 268.89 30.21 264.11 24.70 262.33 C 19.38 260.09 12.64 260.18 8.70 255.45 C 7.00 252.09 4.23 247.96 6.43 244.22 C 7.41 242.29 8.59 240.44 9.26 238.37 C 15.09 220.82 20.21 203.03 26.84 185.75 C 27.64 183.53 28.68 181.36 29.07 179.02 C 28.70 176.49 26.28 174.07 27.48 171.48 C 28.47 169.12 31.49 169.35 33.54 168.61 C 34.29 165.63 35.03 162.51 37.28 160.26 C 40.67 156.68 40.76 151.43 43.52 147.48 Z" />
<path fill="#619800" d=" M 144.59 154.37 C 148.72 156.53 152.57 159.17 156.59 161.50 C 162.50 162.78 168.37 160.88 174.18 160.01 C 175.03 164.78 176.57 169.36 178.27 173.88 C 180.42 174.22 182.57 174.54 184.72 174.84 C 186.71 172.49 188.47 169.95 190.51 167.65 C 197.64 167.26 204.43 164.52 211.60 164.58 C 215.09 167.14 218.74 169.49 222.29 171.97 C 221.06 178.37 218.73 184.50 216.76 190.70 C 215.26 195.46 211.57 198.97 209.27 203.30 C 206.09 208.55 203.67 214.24 202.22 220.21 C 200.74 219.56 199.27 218.90 197.81 218.24 C 197.80 215.09 198.10 211.96 198.28 208.82 C 192.23 207.69 186.07 207.57 179.99 206.68 C 176.51 206.54 173.10 207.41 169.80 208.41 C 165.19 201.92 160.54 195.45 155.93 188.96 C 152.93 184.58 148.62 181.39 144.51 178.14 C 142.98 170.29 143.95 162.26 144.59 154.37 Z" />
<path fill="#619800" d=" M 411.21 166.83 C 413.56 168.81 416.10 170.56 418.34 172.68 C 422.79 173.97 427.26 175.33 431.95 175.27 C 433.17 172.67 434.37 170.06 435.56 167.45 C 443.04 168.20 451.13 166.36 458.13 169.63 C 464.68 177.01 470.54 185.00 476.88 192.57 C 477.28 197.92 474.16 202.47 471.80 206.99 C 470.23 210.07 468.53 213.08 466.74 216.04 C 459.68 217.20 452.82 219.36 445.92 221.18 C 439.88 224.57 432.72 224.31 426.42 227.08 C 421.03 221.87 416.39 215.97 411.33 210.48 C 407.17 208.63 402.43 208.85 397.97 208.70 C 399.17 202.66 399.23 196.49 399.90 190.39 C 400.45 187.47 401.68 184.74 402.39 181.86 C 407.49 178.39 409.78 172.58 411.21 166.83 Z" />
<path fill="#619800" d=" M 387.88 169.21 C 394.51 169.21 401.14 169.58 407.78 169.55 C 406.64 173.99 403.97 177.86 400.12 180.36 C 399.38 183.34 398.23 186.20 397.44 189.16 C 396.54 195.80 396.77 202.60 395.15 209.15 C 389.91 210.61 384.98 212.93 379.83 214.65 C 373.60 216.32 368.25 220.12 362.13 222.09 C 357.25 223.53 354.01 227.62 350.31 230.82 C 344.56 228.89 338.81 226.98 333.05 225.06 C 333.07 223.68 333.10 222.30 333.16 220.93 C 335.87 219.47 338.05 217.27 340.56 215.52 C 343.71 214.27 347.41 215.17 350.51 213.61 C 353.95 211.96 357.30 210.11 360.86 208.70 C 361.77 203.16 361.83 197.37 359.74 192.07 C 363.20 190.39 366.96 189.56 370.64 188.55 C 373.54 187.83 375.42 185.38 377.49 183.43 C 380.14 180.70 383.16 178.38 385.94 175.79 C 387.84 174.19 387.52 171.43 387.88 169.21 Z" />
<path fill="#619800" d=" M 320.91 171.04 C 324.56 170.39 328.76 168.65 332.19 170.94 C 336.30 173.84 334.00 181.16 339.28 182.84 C 342.78 184.79 346.89 184.47 350.75 184.83 C 353.22 188.22 355.98 191.45 357.96 195.18 C 359.29 198.91 358.66 202.97 358.55 206.85 C 353.42 208.97 348.74 212.76 342.88 212.36 C 338.16 212.98 334.66 209.25 331.95 205.95 C 324.85 200.26 321.51 191.38 319.02 182.92 C 318.49 178.88 319.04 174.69 320.91 171.04 Z" />
<path fill="#619800" d=" M 238.17 182.23 C 239.40 180.34 240.64 178.47 241.88 176.59 C 247.94 176.86 254.05 178.43 259.13 181.83 C 265.24 185.69 272.74 183.11 279.46 184.66 C 283.51 187.10 288.42 187.21 292.71 189.13 C 291.79 193.07 290.17 197.29 291.70 201.31 C 292.86 203.89 294.40 206.34 296.23 208.50 C 299.28 210.78 302.87 212.15 306.39 213.51 C 303.76 215.88 301.16 218.27 298.58 220.70 C 294.07 220.53 289.57 221.31 285.06 221.01 C 283.29 221.27 282.51 219.52 281.51 218.46 C 278.99 215.16 275.44 212.84 271.73 211.06 C 267.09 208.72 261.66 209.88 256.80 208.35 C 248.49 205.67 241.12 200.81 232.92 197.87 C 230.25 196.46 228.46 193.87 226.21 191.92 C 227.40 188.06 227.82 182.94 232.11 181.18 C 234.15 181.35 236.14 181.92 238.17 182.23 Z" />
<path fill="#619800" d=" M 295.25 189.49 C 298.87 188.66 302.07 186.30 305.88 186.28 C 309.73 186.15 313.59 186.29 317.45 186.24 C 319.26 192.85 322.36 199.11 326.59 204.51 C 330.35 207.85 333.57 211.79 337.73 214.69 C 335.64 216.32 333.23 217.52 331.28 219.32 C 329.72 222.35 330.77 225.92 330.66 229.19 C 329.52 229.51 328.39 229.84 327.25 230.17 C 320.61 227.00 319.05 218.90 313.31 214.75 C 308.72 210.94 302.68 209.77 297.71 206.59 C 296.44 204.37 294.79 202.33 293.95 199.90 C 293.09 196.39 294.53 192.89 295.25 189.49 Z" />
<path fill="#619800" d=" M 215.92 197.88 C 217.53 195.72 218.49 193.19 219.56 190.75 C 220.76 191.08 221.96 191.41 223.17 191.75 C 223.37 192.17 223.78 193.02 223.99 193.44 C 226.63 195.57 228.62 198.53 231.65 200.14 C 240.35 203.16 248.10 208.48 256.98 211.05 C 261.68 212.40 266.90 211.35 271.33 213.70 C 275.32 215.51 278.80 218.39 281.08 222.16 C 278.62 225.06 276.51 228.42 276.03 232.28 C 276.30 238.88 277.96 245.29 279.25 251.74 C 277.07 252.30 274.89 252.88 272.72 253.46 C 269.03 251.49 265.80 248.58 261.73 247.41 C 257.90 246.78 254.10 247.91 250.29 248.15 C 244.33 242.23 238.15 236.54 232.22 230.59 C 230.59 231.18 229.01 231.88 227.47 232.65 C 220.81 227.16 212.26 224.91 204.61 221.19 C 206.62 212.70 210.68 204.82 215.92 197.88 Z" />
<path fill="#619800" d=" M 171.06 210.67 C 179.02 207.97 187.38 210.38 195.50 210.92 C 195.20 213.96 195.08 217.03 195.75 220.04 C 201.72 222.92 207.93 225.26 213.94 228.05 C 217.53 229.76 221.53 230.90 224.56 233.59 C 226.43 236.87 227.41 240.57 229.00 243.99 C 231.91 250.79 235.49 257.29 238.25 264.16 C 237.78 264.69 236.85 265.74 236.38 266.27 C 236.73 271.19 237.32 276.13 238.74 280.87 C 238.10 280.83 236.81 280.74 236.16 280.70 C 235.51 279.64 234.86 278.59 234.20 277.55 C 233.58 278.63 232.96 279.71 232.36 280.80 C 229.27 278.42 226.19 276.03 222.78 274.12 C 212.00 267.94 202.46 259.92 192.66 252.34 C 193.15 250.98 193.63 249.62 194.12 248.26 C 192.24 245.69 190.35 243.12 188.44 240.58 C 186.31 241.41 184.20 242.29 182.09 243.16 C 181.59 239.77 181.24 236.30 179.90 233.11 C 176.92 225.64 173.98 218.15 171.06 210.67 Z" />
<path fill="#619800" d=" M 379.98 217.28 C 387.30 215.22 394.16 210.45 402.06 211.32 C 404.61 211.55 407.22 211.74 409.67 212.54 C 414.50 217.62 418.82 223.20 423.90 228.06 C 418.51 230.19 413.10 232.50 407.22 232.67 C 399.65 235.14 391.86 237.09 384.61 240.46 C 379.59 242.79 373.99 243.59 369.14 246.33 C 358.99 250.71 350.20 257.58 341.63 264.45 C 338.04 261.67 336.74 257.15 334.61 253.34 C 332.98 249.84 330.18 246.89 329.23 243.10 C 328.91 241.03 331.49 241.18 332.88 241.04 C 336.28 240.74 340.28 241.58 343.07 239.11 C 345.09 237.39 347.26 235.87 349.53 234.50 C 354.34 231.48 357.54 226.12 363.18 224.42 C 368.96 222.47 374.06 218.89 379.98 217.28 Z" />
<path fill="#619800" d=" M 300.83 221.98 C 303.54 219.54 306.23 217.08 308.89 214.58 C 315.12 218.01 317.49 225.03 322.26 229.90 C 324.35 231.61 327.17 233.40 329.94 232.16 C 332.11 231.89 332.72 229.57 333.74 228.01 C 338.34 229.60 342.97 231.15 347.62 232.61 C 344.95 234.24 342.63 236.35 339.99 238.00 C 335.35 238.83 329.43 237.06 326.33 241.69 C 322.59 243.01 318.10 243.26 314.39 241.54 C 311.41 240.38 308.81 238.48 305.93 237.10 C 305.61 234.84 305.63 232.54 305.14 230.31 C 303.77 227.50 302.19 224.79 300.83 221.98 Z" />
<path fill="#619800" d=" M 278.70 231.94 C 279.27 228.62 281.17 225.78 283.60 223.52 C 288.63 223.88 293.66 223.37 298.70 223.50 C 299.97 226.14 301.53 228.64 302.72 231.32 C 303.14 233.93 303.41 236.58 303.40 239.22 C 302.10 241.45 300.79 244.01 298.23 245.00 C 294.79 246.65 291.83 249.06 288.99 251.58 C 286.59 251.33 284.18 251.23 281.78 251.16 C 280.76 244.75 278.42 238.49 278.70 231.94 Z" />
<path fill="#619800" d=" M 228.35 235.65 C 229.33 234.84 230.31 234.04 231.30 233.24 C 237.35 239.16 243.48 245.01 249.58 250.89 C 253.38 250.80 257.10 249.42 260.91 249.84 C 264.95 251.13 268.32 253.88 271.85 256.15 C 276.93 254.94 282.03 253.54 287.32 253.95 C 289.81 257.15 292.70 260.03 295.09 263.30 C 295.25 266.13 294.10 269.04 292.63 271.43 C 289.64 274.18 285.51 275.88 283.85 279.88 C 279.06 277.81 274.53 275.14 269.56 273.50 C 260.22 270.28 250.50 268.26 241.21 264.87 C 237.43 254.90 231.95 245.69 228.35 235.65 Z" />
<path fill="#619800" d=" M 306.24 239.98 C 309.85 242.32 313.69 244.59 318.01 245.22 C 320.93 245.41 323.83 244.93 326.73 244.66 C 328.04 247.17 329.47 249.61 330.98 252.01 C 333.90 256.77 335.40 262.49 339.68 266.32 C 338.48 267.27 337.28 268.21 336.08 269.17 C 334.56 265.53 332.88 261.74 329.75 259.18 C 327.54 257.23 324.68 256.33 322.01 255.22 C 319.46 258.04 317.28 261.19 314.54 263.83 C 312.19 264.93 309.36 264.73 307.16 266.21 C 306.09 268.31 306.80 270.71 306.84 272.95 C 303.20 272.69 299.59 272.05 296.20 270.66 C 296.82 268.42 297.44 266.18 298.00 263.93 C 300.92 262.91 304.10 262.46 306.74 260.73 C 309.83 258.85 311.51 255.50 313.05 252.36 C 309.92 249.37 306.19 247.13 303.03 244.17 C 304.09 242.77 305.16 241.37 306.24 239.98 Z" />
<path fill="#619800" d=" M 290.38 253.73 C 293.64 250.70 297.22 247.96 301.42 246.38 C 304.21 248.72 307.24 250.74 310.09 253.00 C 308.39 255.54 306.62 258.41 303.59 259.50 C 301.43 260.24 299.21 260.76 297.05 261.49 C 294.78 258.94 292.54 256.37 290.38 253.73 Z" />
<path fill="#619800" d=" M 315.46 266.45 C 318.26 264.05 320.37 260.95 322.69 258.11 C 325.15 259.28 327.77 260.40 329.60 262.52 C 331.93 265.29 333.12 268.77 334.40 272.11 C 328.98 275.12 324.46 279.50 318.80 282.10 C 316.67 281.07 314.54 279.71 314.41 277.09 C 312.93 276.28 311.45 275.49 309.97 274.69 C 309.65 272.39 309.32 270.09 309.08 267.78 C 311.20 267.33 313.39 267.13 315.46 266.45 Z" />
<path fill="#619800" d=" M 239.12 266.93 C 253.21 271.94 268.30 274.28 281.50 281.63 C 282.00 282.26 282.51 282.89 283.02 283.52 C 278.33 285.29 274.41 289.53 269.10 289.22 C 267.22 288.55 265.75 287.14 264.17 285.98 C 263.90 286.61 263.36 287.85 263.09 288.48 C 260.11 286.13 256.08 284.88 252.87 287.63 C 250.09 284.58 247.53 281.39 245.52 277.78 C 245.93 281.20 247.34 284.40 249.66 286.95 C 248.72 288.03 247.79 289.12 246.85 290.20 C 244.91 288.09 242.90 286.05 240.89 284.01 C 241.36 278.23 239.13 272.70 239.12 266.93 Z" />
<path fill="#619800" d=" M 288.09 278.14 C 290.27 276.25 292.74 274.72 294.98 272.89 C 299.08 274.75 303.54 275.27 307.98 275.59 C 308.61 280.96 308.03 286.35 307.50 291.70 C 305.90 289.47 304.31 287.18 302.00 285.63 C 301.68 285.08 301.03 283.98 300.71 283.43 C 300.42 284.07 299.84 285.34 299.55 285.97 C 300.41 287.80 301.26 289.64 302.02 291.52 C 298.02 290.38 295.96 286.42 292.59 284.29 C 290.54 283.49 288.30 283.53 286.15 283.24 C 286.69 281.53 286.60 279.38 288.09 278.14 Z" />
<path fill="#619800" d=" M 279.47 290.14 C 282.41 289.14 286.08 287.99 288.83 290.01 C 291.62 291.76 294.64 293.74 295.76 297.01 C 294.24 298.51 292.49 299.74 290.83 301.07 C 294.88 302.16 299.00 303.02 303.19 303.30 C 303.34 304.57 303.49 305.84 303.63 307.12 C 303.13 307.43 302.13 308.05 301.63 308.37 C 300.10 311.09 298.39 313.73 296.19 315.98 C 296.38 314.34 296.65 312.72 296.95 311.10 C 296.08 310.58 295.20 310.07 294.33 309.57 C 293.84 311.97 293.40 314.38 293.05 316.81 C 291.71 316.57 290.36 316.34 289.02 316.12 C 288.41 317.81 287.80 319.50 287.19 321.19 C 285.89 321.97 284.59 322.76 283.30 323.56 C 281.90 322.52 280.49 321.51 279.08 320.49 C 278.05 317.61 276.84 314.45 274.09 312.80 C 271.70 311.27 270.23 308.67 267.73 307.31 C 262.20 304.13 256.22 300.80 253.06 294.99 C 254.07 293.21 256.27 293.76 257.97 293.77 C 262.70 294.31 267.27 295.75 271.99 296.42 C 275.75 296.80 279.12 298.61 282.50 300.16 C 282.64 299.71 282.93 298.81 283.07 298.35 C 279.73 297.43 275.39 296.47 274.20 292.75 C 275.45 291.08 277.66 290.86 279.47 290.14 Z" />
</svg>
