<?xml version="1.0" encoding="UTF-8" standalone="no"?>
<svg width="1004px" height="602px" viewBox="0 0 1004 602" version="1.1" xmlns="http://www.w3.org/2000/svg" xmlns:xlink="http://www.w3.org/1999/xlink" xmlns:sketch="http://www.bohemiancoding.com/sketch/ns">
    <!-- Generator: Sketch 3.1 (8751) - http://www.bohemiancoding.com/sketch -->
    <title>Slice 2</title>
    <desc>Created with Sketch.</desc>
    <defs></defs>
    <g id="Page-1" stroke="none" stroke-width="1" fill="none" fill-rule="evenodd" sketch:type="MSPage">
        <g id="bg-map" sketch:type="MSLayerGroup">
            <path d="M0,0 L1004,0 L1004,602 L0,602 L0,0 L0,0 Z" id="Shape" sketch:type="MSShapeGroup"></path>
            <path d="M432.705745,24.0252727 C444.425164,16.6553333 457.385891,10.5623636 471.295855,9.12121212 C479.072291,9.24890909 488.126545,7.31521212 494.223564,13.4811515 C490.609164,17.7863636 486.757455,21.9821212 484.347855,27.1264848 C487.3416,25.4299394 490.116291,23.3867879 492.781455,21.2159394 C493.931491,21.0882424 496.249818,20.8146061 497.399855,20.6869091 C497.984,22.146303 499.115782,25.0650909 499.681673,26.5244848 C502.657164,23.2773333 504.975491,19.4829091 507.549382,15.9073939 C518.6664,18.8261818 527.3008,26.7433939 536.884436,32.6721818 C544.952945,38.4367879 554.573091,42.5778182 560.542327,50.8416364 C563.663855,55.0921212 566.420291,59.6162424 569.541818,63.9032121 C574.014182,69.832 573.995927,77.9133939 578.450036,83.8604242 C581.608073,87.9649697 585.185964,91.7046667 588.599564,95.590303 C589.512291,106.316848 580.458036,113.10303 576.168218,121.877636 C581.078691,124.595758 586.189964,126.94903 591.301236,129.284061 C588.563055,134.793273 585.751855,140.266 583.670836,146.048848 C581.7176,151.959394 575.930909,155.206545 570.837891,158.107091 C556.051709,166.152 541.886182,175.291455 527.9032,184.649818 C523.923709,180.563515 519.779927,175.638061 513.6464,175.236727 C505.924727,176.185333 498.531636,178.72103 490.956,180.381091 C495.410109,167.137091 494.1688,152.762061 498.951491,139.59103 C501.233309,132.768364 501.032509,124.449818 496.760945,118.502788 C487.159055,109.235636 473.011782,112.136182 461.055055,109.746424 C447.564945,107.046545 433.545455,106.772909 420.548218,101.920424 C422.976073,88.7311515 425.476945,75.4506667 424.783273,61.9877576 C425.440436,59.1784242 422.373673,58.8500606 420.548218,57.9379394 C412.4432,54.8732121 404.228655,52.1003636 396.141891,49.0173939 C405.725527,37.2875152 420.256145,31.9607273 432.705745,24.0252727 L432.705745,24.0252727 Z" id="Shape" fill="#619800" sketch:type="MSShapeGroup"></path>
            <path d="M369.234691,66.347697 C377.3032,62.1884242 386.047127,59.0324848 392.874327,52.7935758 C402.038109,56.0407273 411.165382,59.4155758 420.2744,62.8086667 C420.164873,75.5966061 418.521964,88.2568485 415.838545,100.752909 C408.536727,103.142667 401.362691,105.897273 394.444218,109.253879 C395.338691,116.642061 396.525236,124.012 396.999855,131.454909 C397.401455,136.799939 400.176145,142.309152 397.912582,147.56297 C394.480727,156.465273 389.771055,164.87503 387.270182,174.123939 C385.609018,180.253394 380.881091,184.832242 377.996873,190.359697 C367.719564,188.243576 357.204945,188.845576 346.799855,188.772606 C339.205964,188.608424 331.739855,190.596848 324.602327,193.004848 C315.164727,196.525636 311.513818,206.631939 304.832655,213.308667 C297.019709,221.809636 285.647127,225.202727 275.534109,230.03697 C272.978473,218.763152 270.057745,207.580545 267.757673,196.252 C266.041745,183.993091 264.891709,171.64297 263.431345,159.347576 C271.645891,152.524909 281.740655,146.833273 286.121745,136.599273 C289.225018,127.113212 290.630618,116.71503 296.910182,108.597152 C296.015709,102.011636 294.025964,95.3531515 295.559345,88.7129091 C300.3968,88.5122424 305.197745,87.6366061 310.0352,87.7825455 C314.014691,89.8986667 317.117964,93.5653939 321.4808,94.9153333 C327.869891,95.0065455 333.017673,90.1175758 339.352,89.9533939 C344.1712,89.7162424 349.008655,90.2270303 353.827855,90.3912121 C358.099418,81.9449697 362.261455,72.8967273 369.234691,66.347697 L369.234691,66.347697 Z" id="Shape" fill="#619800" sketch:type="MSShapeGroup"></path>
            <path d="M201.657964,89.9533939 C215.294109,78.26 229.331855,66.2382424 246.527636,60.1270303 C255.6184,59.9081212 265.037745,59.7439394 273.726909,62.8086667 C276.209527,63.4289091 277.578618,65.7639394 279.166764,67.551697 C282.562109,72.0758182 286.851927,75.7972727 291.287782,79.2633333 C291.671127,80.5585455 292.437818,83.1489697 292.821164,84.4441818 C288.878182,91.7411515 290.247273,99.7860606 292.054473,107.447879 C283.5296,118.192667 285.847927,134.191273 275.534109,143.695576 C270.094255,148.529818 264.143273,152.762061 258.593891,157.468606 C260.601891,175.674545 261.587636,194.117636 266.443345,211.867515 C270.988727,228.486364 273.361818,245.524788 275.680145,262.563212 C271.08,266.722485 266.479855,270.863515 261.806691,274.949818 C253.081018,269.349394 243.095782,274.913333 233.694691,273.636364 C218.452145,272.450606 203.118327,272.487091 187.930545,270.863515 C182.764509,270.571636 177.160364,267.525152 172.359418,270.699333 C160.950327,276.463939 149.614255,282.356242 138.387709,288.412727 C135.193164,287.062788 132.016873,285.694606 128.840582,284.362909 C128.384218,280.586727 129.662036,276.172061 127.1064,272.979636 C119.311709,262.344303 109.709818,250.906303 95.8181091,248.972606 C102.298473,237.352182 107.354982,225.056788 112.8496,212.980303 C115.478255,200.593697 114.565527,187.367939 119.2752,175.455636 C123.108655,166.407394 134.499491,163.652788 137.255927,153.929576 C139.519491,145.994121 142.221164,137.967455 147.752291,131.619091 C147.807055,129.174606 147.861818,126.730121 147.916582,124.267394 C152.8088,119.943939 157.0256,114.690121 162.994836,111.753091 C169.018836,108.797818 175.353164,106.535758 181.778764,104.67503 C190.029818,102.522424 196.108582,96.0463636 201.657964,89.9533939 L201.657964,89.9533939 Z" id="Shape" fill="#619800" sketch:type="MSShapeGroup"></path>
            <path d="M399.555491,111.753091 C405.342182,109.418061 411.183636,107.210727 417.116364,105.295273 C424.345164,108.524182 432.103345,110.384909 439.971055,111.260545 C452.2016,112.683455 464.2496,115.821152 476.626182,115.985333 C482.887491,116.003576 488.728945,118.375091 493.986255,121.604 C498.659418,133.57103 490.882982,144.972545 490.390109,156.921333 C489.970255,166.772242 486.885236,176.130606 485.151055,185.762606 C494.862473,184.978182 504.044509,181.402667 513.6464,179.979758 C519.560873,180.764182 523.193527,186.419333 526.150764,191.071152 C529.947709,199.626848 532.7224,208.620364 534.438327,217.832788 C519.962473,230.292364 506.180291,243.554606 492.306836,256.634424 C485.114545,258.659333 477.3016,258.78703 470.547418,262.380788 C459.777236,268.090667 446.962545,266.412364 435.480436,264.095576 C425.641236,261.760545 415.199636,262.107152 405.707273,258.385697 C401.034109,254.791939 397.510982,249.848242 392.436218,246.710545 C386.430473,231.368667 385.682036,214.640364 382.304945,198.641758 C380.278691,189.63 389.734545,184.193758 391.523491,176.112364 C394.261673,164.765576 401.453964,154.969394 403.681018,143.513152 C401.782545,133.005515 400.979345,122.351939 399.555491,111.753091 L399.555491,111.753091 Z" id="Shape" fill="#619800" sketch:type="MSShapeGroup"></path>
            <path d="M598.639564,124.066727 C605.083418,123.48297 610.304218,127.678727 615.543273,130.761697 C617.8616,136.544545 620.289455,143.093576 626.715055,145.410364 C632.154909,149.770303 638.836073,145.191455 644.823564,147.49 C652.618255,149.82503 660.997091,150.5 668.225891,154.513333 C662.493964,160.642788 653.768291,163.926424 650.117382,171.898364 C644.568,182.661394 640.552,194.263576 633.524,204.242182 C628.850836,210.554061 621.512509,214.421455 617.386982,221.225879 C611.764582,228.83297 609.008145,238.118364 603.495273,245.761939 C598.9864,251.398848 591.118691,250.96103 584.601818,250.96103 C580.677091,247.750364 576.715855,244.576182 572.334764,242.040485 C571.330764,242.843152 569.341018,244.448485 568.355273,245.251152 C561.4368,235.582667 570.052945,221.773152 560.560582,213.399879 C553.788145,209.003455 545.445818,211.739818 538.454327,214.093091 C536.866182,205.20903 533.361309,196.890485 530.531855,188.371273 C544.7704,179.012909 559.0272,169.672788 574.014182,161.573152 C579.727855,158.271273 586.427273,154.568061 588.252727,147.708909 C590.990909,139.518061 595.317236,132.002182 598.639564,124.066727 L598.639564,124.066727 Z" id="Shape" fill="#619800" sketch:type="MSShapeGroup"></path>
            <path d="M689.3464,139.645758 C693.873527,134.957455 701.5952,134.373697 707.144582,137.529636 C708.203345,143.312485 709.718473,149.004121 710.412145,154.859939 C712.876509,158.362485 715.340873,161.956242 718.754473,164.637879 C728.064291,171.788909 733.777964,182.460727 738.286836,193.077818 C742.5584,192.11097 747.669673,188.115879 751.5944,191.892061 C753.967491,193.515636 756.249309,195.230424 758.6224,196.872242 C759.370836,199.170788 760.137527,201.451091 760.904218,203.731394 C755.135782,209.678424 748.107782,214.257273 742.704436,220.550909 C737.848727,226.151333 731.861236,231.003818 729.214327,238.154848 C722.113309,254.864909 713.278109,270.735818 705.446909,287.099273 C700.883273,296.147515 701.777745,306.381515 702.781745,316.104727 C696.337891,321.632182 689.912291,327.214364 683.961309,333.289091 C676.330909,342.629212 662.767782,340.567818 653.330182,347.135091 C649.551491,342.319091 646.722036,336.44503 641.592509,332.869515 C633.706545,331.519576 625.272945,332.395212 618.226691,327.816364 C616.0544,320.446424 615.086909,310.796182 607.310473,307.02 C600.465018,303.043152 592.396509,306.107879 585.204218,307.165939 C581.462036,297.150848 578.194473,286.260121 580.9144,275.570061 C582.648582,268.984545 583.634327,262.234848 584.437527,255.485152 C590.352,255.357455 596.722836,256.214848 601.980145,252.803515 C606.543782,250.888061 608.953382,246.309212 611.198691,242.186424 C615.981382,232.882788 620.106909,222.648788 628.430982,215.844364 C641.884582,205.464424 646.813309,188.49897 654.261164,173.959758 C657.510473,166.480364 666.400436,164.382485 670.799782,157.79697 C675.874545,150.664182 683.340655,145.902909 689.3464,139.645758 L689.3464,139.645758 Z" id="Shape" fill="#619800" sketch:type="MSShapeGroup"></path>
            <path d="M325.880145,197.620182 C342.144945,191.472485 360.107418,192.621758 377.029382,194.97503 C380.625527,213.345152 381.556509,232.517939 388.7488,249.975939 C392.527491,252.456909 396.087127,255.266242 399.208655,258.549879 C398.058618,266.01103 398.332436,274.110667 394.115636,280.714424 C391.085382,285.603394 388.018618,290.455879 384.897091,295.290121 C373.2872,295.782667 362.206691,299.650061 350.651564,300.762848 C343.148945,301.036485 339.534545,308.588848 335.646327,313.879152 C333.5288,313.623758 331.393018,313.386606 329.275491,313.167697 C325.515055,305.250485 323.726109,296.658303 322.119709,288.102606 C310.4368,286.862121 299.173745,291.860545 287.417818,290.528848 C280.627127,285.621636 273.2888,281.517091 266.005236,277.394303 C270.8792,273.052606 275.753164,268.692667 280.627127,264.369212 C279.276291,254.481818 277.870691,244.612667 276.410327,234.743515 C288.129745,229.179576 301.327782,225.07503 309.943927,214.786303 C315.128218,209.003455 318.158473,200.630182 325.880145,197.620182 L325.880145,197.620182 Z" id="Shape" fill="#619800" sketch:type="MSShapeGroup"></path>
            <path d="M852.815855,214.457939 C854.787345,210.152727 858.073164,206.376545 863.074909,205.829273 C870.8696,205.665091 878.755564,206.595455 886.166909,209.076424 C886.951855,208.346727 888.521745,206.905576 889.306691,206.175879 C897.795055,209.149394 906.739782,212.214121 913.293164,218.653697 C916.998836,223.743333 918.915564,229.854545 921.945818,235.345515 C924.702255,240.945939 928.4992,246.108545 930.233382,252.183273 C930.561964,255.831758 929.119855,259.38903 928.718255,262.982788 C934.395418,264.168545 940.163855,263.457091 945.895782,263.037515 C952.631709,265.956303 959.970036,267.452182 966.523418,270.845273 C973.934764,275.314667 980.908,280.477273 988.063782,285.348 C988.520145,286.935091 988.958255,288.540424 989.432873,290.145758 C986.603418,298.555515 994.1608,304.867394 994.598909,312.912303 C991.623418,313.331879 988.647927,313.71497 985.672436,314.079818 C981.729455,326.284 976.417382,337.940909 970.813236,349.470121 C959.696218,345.912848 949.418909,340.093515 938.119345,337.028788 C947.191855,344.435212 958.692218,347.828303 968.403636,354.231394 C961.704218,365.596424 955.661964,377.344545 949.948291,389.238606 C945.202109,399.235455 934.413673,403.504182 925.249891,408.411394 C917.582982,412.461212 908.966836,408.338424 902.267418,404.288606 C895.421964,400.129333 887.225673,402.482606 879.869091,403.467697 C879.248436,398.59697 879.193673,393.689758 879.449236,388.800788 C873.406982,394.674848 865.210691,395.787636 857.160436,394.912 C863.786836,380.299818 875.780073,367.074061 875.414982,350.218061 C863.385236,335.003879 851.063418,320.045091 838.978909,304.867394 C830.983418,302.076303 822.586327,300.835818 814.134473,300.835818 C813.550327,287.628303 815.485309,274.566727 817.000436,261.505152 C818.095709,251.781939 814.408291,242.660727 812.473309,233.320606 C819.483055,231.934182 826.6936,232.517939 833.739855,233.357091 C833.082691,239.760182 831.403273,245.999091 828.920655,251.946121 C829.285745,252.748788 830.034182,254.372364 830.417527,255.193273 C833.831127,248.315879 838.047927,241.602667 839.161455,233.867879 C839.928145,227.519515 844.911636,222.977152 850.150691,219.948909 C852.907127,221.280606 855.681818,222.594061 858.493018,223.889273 C859.843855,219.182727 856.028655,216.865939 852.815855,214.457939 L852.815855,214.457939 Z" id="Shape" fill="#619800" sketch:type="MSShapeGroup"></path>
            <path d="M735.694691,235.673879 C743.379855,225.07503 753.383345,216.501091 763.295564,208.036606 C767.092509,213.363394 773.098255,216.209212 778.063491,220.25903 C786.442327,227.62897 796.956945,232.390242 807.854909,234.597576 C810.775636,245.068727 813.459055,255.868242 811.688364,266.813697 C809.735127,278.142242 809.552582,289.616727 809.242255,301.07297 C803.565091,300.744606 797.906182,300.489212 792.247273,300.598667 C790.001964,305.451152 787.774909,310.321879 785.493091,315.174364 C777.880945,313.897394 769.538618,313.131212 763.222545,308.242242 C758.074764,304.757939 753.6024,300.416242 748.637164,296.694788 C747.596655,299.376424 746.5744,302.058061 745.588655,304.739697 C732.390618,304.137697 719.156073,304.228909 705.939782,303.590424 C707.546182,289.543758 715.669455,277.649697 721.602182,265.171879 C726.786473,255.576364 730.601673,245.305879 735.694691,235.673879 L735.694691,235.673879 Z" id="Shape" fill="#619800" sketch:type="MSShapeGroup"></path>
            <path d="M537.304291,221.225879 C542.817164,215.880848 551.013455,215.023455 558.260509,216.464606 C562.915418,227.683697 556.745382,242.460061 567.8624,251.088727 C569.176727,250.158364 571.787127,248.279394 573.101455,247.34903 C575.419782,249.373939 577.719855,251.435333 580.019927,253.51497 C578.997673,260.538303 578.066691,267.579879 576.332509,274.475515 C573.630836,286.588485 576.661091,299.048061 581.389018,310.248909 C577.172218,317.910727 577.281745,326.740061 577.190473,335.222788 C569.779127,335.295758 562.331273,334.876182 554.919927,335.423455 C547.873673,336.043697 541.867927,342.118424 534.493091,339.929333 C526.570618,337.64903 518.648145,335.38697 510.926473,332.486424 C502.492873,330.808121 493.876727,330.643939 485.315345,330.607455 C476.461891,330.844606 470.401382,323.036848 462.150327,321.230848 C454.994545,319.58903 447.692727,315.867576 440.226618,318.038424 C436.612218,320.355212 434.585964,324.40503 431.902545,327.652182 C428.215127,326.630606 423.688,323.310485 420.292655,326.831273 C413.721018,330.899333 410.745527,338.178061 409.321673,345.438545 C406.893818,344.781818 404.447709,344.143333 402.019855,343.504848 C404.648509,333.307333 410.015345,323.565879 410.161382,312.894061 C405.031855,305.670061 396.1784,302.404667 389.387709,296.986667 C392.454473,291.824061 395.7768,286.843879 398.880073,281.717758 C402.457964,276.062606 402.530982,269.185212 403.534982,262.782121 C411.658255,265.390788 420.110109,266.576545 428.561964,267.616364 C438.930545,269.641273 449.463418,271.921576 460.087564,270.535152 C467.590182,270.243273 473.632436,264.989455 480.916,263.694242 C486.118545,262.107152 492.598909,263.694242 496.614909,259.297818 C509.557382,245.962606 523.613382,233.776667 537.304291,221.225879 L537.304291,221.225879 Z" id="Shape" fill="#619800" sketch:type="MSShapeGroup"></path>
            <path d="M79.4437818,269.039273 C83.1129455,263.657758 86.5082909,258.002606 91.4187636,253.642667 C106.314473,253.077152 115.788582,265.846848 123.966618,276.336242 C124.112655,280.021212 123.911855,283.760909 124.678545,287.372909 C129.1144,289.890364 133.9336,291.605152 138.625018,293.538848 C151.074618,286.697939 163.816291,280.440788 176.3024,273.709333 C195.1776,277.704424 214.582182,276.737576 233.694691,278.379394 C242.310836,279.619879 251.054764,274.876848 259.378836,278.580061 C258.447855,294.45097 255.873964,310.796182 259.543127,326.448182 C265.402836,333.726909 274.530109,337.959152 279.823927,345.894606 C288.604364,358.445394 297.822909,370.704303 306.439055,383.364545 C312.755127,396.845697 317.428291,411.038303 323.214982,424.756606 C326.0992,431.10497 326.865891,438.055333 327.723855,444.914485 C321.462545,444.768545 315.018691,444.367212 309.4328,441.247758 C309.688364,439.314061 310.199491,435.428424 310.455055,433.494727 C307.680364,434.315636 305.161236,435.756788 302.733382,437.270909 C294.7744,438.529636 286.833673,436.504727 279.422327,433.768364 C277.250036,433.221091 276.209527,431.123212 275.534109,429.207758 C272.631636,420.925697 272.412582,412.041636 270.021236,403.631879 C265.548873,408.885697 260.474109,415.142848 261.551127,422.494545 C263.321818,424.008667 265.2568,425.303879 267.356073,426.361939 C268.141018,429.481394 268.8712,432.582606 269.564873,435.738545 C263.6504,433.914303 259.8352,428.970606 255.600145,424.847818 C251.693673,420.852727 246.235564,419.083212 241.471127,416.346848 C240.521891,417.769758 239.5544,419.192667 238.605164,420.615576 C243.3696,425.322121 248.699927,429.828 251.146036,436.267576 C245.414109,437.471576 239.572655,437.015515 233.858982,436.066909 C232.928,429.846242 232.088291,423.570848 232.033527,417.277212 C229.441382,417.277212 226.830982,417.295455 224.238836,417.295455 C224.147564,422.093212 224.056291,426.872727 223.965018,431.670485 C219.729964,431.451576 215.513164,431.141455 211.296364,430.648909 C210.913018,429.481394 210.128073,427.146364 209.744727,425.978848 C204.359636,423.060061 200.215855,417.842727 193.991055,416.693455 C190.942545,422.658727 190.997309,429.353697 191.143345,435.884485 C182.052582,436.960788 173.345164,439.970788 164.290909,441.229515 C159.197891,442.159879 153.940582,442.47 149.011855,444.166545 C140.706036,450.752061 134.006618,459.161818 125.536509,465.583152 C125.189673,464.324424 124.477745,461.825212 124.130909,460.584727 C117.814836,456.297758 111.170182,452.266182 106.2232,446.337394 C105.2192,445.881333 103.2112,444.95097 102.188945,444.494909 C99.2864727,439.879576 96.8403636,431.615758 89.6845818,434.899394 C89.6115636,433.768364 89.4655273,431.524545 89.3742545,430.411758 C93.8101091,424.099879 99.3777455,418.681879 104.269964,412.734848 C103.576291,411.84097 102.188945,410.071455 101.495273,409.177576 C96.3657455,414.084788 91.5465455,419.283879 86.7090909,424.464727 C83.7518545,421.4 80.8493818,418.262303 77.9651636,415.124606 C82.2002182,409.816061 86.344,404.452788 90.5608,399.126 C88.9544,397.703091 87.348,396.261939 85.7416,394.820788 C80.5938182,399.509091 75.6285818,404.398061 70.4260364,409.031636 C64.8766545,404.598727 60.4955636,398.998303 56.4065455,393.251939 C55.5668364,398.633455 50.0357091,404.160909 53.5770909,409.524182 C60.3860364,422.056727 64.7488727,435.702061 71.5578182,448.216364 C76.7238545,459.636121 85.1209455,469.705939 87.3845091,482.293212 C83.7336,485.13903 79.9914182,488.532121 75.0992,488.75103 C63.8361455,490.520545 55.1469818,481.800667 45.0887273,478.553515 C35.3773091,474.467212 23.0737455,474.631394 15.8814545,466.002727 C12.7781818,459.873273 7.72167273,452.339152 11.7376727,445.516485 C13.5266182,441.995697 15.6806545,438.620848 16.9037091,434.844667 C27.5461091,402.829212 36.8924364,370.375939 48.9952,338.85303 C50.4555636,334.803212 52.3540364,330.844606 53.0659636,326.575879 C52.3905455,321.960545 47.9729455,317.545879 50.1634909,312.821091 C51.9706909,308.515879 57.4835636,308.935455 61.2257455,307.585515 C62.5948364,302.149273 63.9456727,296.457636 68.0529455,292.353091 C74.2412364,285.822303 74.4055273,276.24503 79.4437818,269.039273 L79.4437818,269.039273 Z" id="Shape" fill="#619800" sketch:type="MSShapeGroup"></path>
            <path d="M263.942473,281.608303 C271.4816,285.548667 278.5096,290.364667 285.847927,294.615152 C296.636364,296.950182 307.351782,293.484121 317.957673,291.89703 C319.509309,300.598667 322.320509,308.953697 325.423782,317.199273 C329.348509,317.819515 333.273236,318.403273 337.197964,318.950545 C340.830618,314.663576 344.043418,310.03 347.767345,305.834242 C360.782836,305.122788 373.177673,300.124364 386.266182,300.233818 C392.637018,304.903879 399.299927,309.190848 405.780291,313.71497 C403.534982,325.390121 399.281673,336.572727 395.685527,347.88303 C392.947345,356.566424 386.211418,362.969515 382.012873,370.868485 C376.207927,380.445758 371.790327,390.825697 369.143418,401.716424 C366.441745,400.530667 363.758327,399.326667 361.093164,398.122667 C361.074909,392.376303 361.622545,386.666424 361.951127,380.938303 C350.907127,378.876909 339.662327,378.658 328.563564,377.034424 C322.210982,376.77903 315.986182,378.366121 309.962182,380.190364 C301.546836,368.35103 293.058473,356.548182 284.643127,344.708848 C279.166764,336.718667 271.299055,330.899333 263.796436,324.970545 C261.003491,310.650242 262.774182,296.001576 263.942473,281.608303 L263.942473,281.608303 Z" id="Shape" fill="#619800" sketch:type="MSShapeGroup"></path>
            <path d="M750.645164,304.338364 C754.934982,307.950364 759.571636,311.142788 763.660655,315.010182 C771.783927,317.363455 779.943709,319.844424 788.505091,319.73497 C790.732145,314.991939 792.922691,310.230667 795.094982,305.469394 C808.749382,306.837576 823.517309,303.48097 836.295491,309.446242 C848.252218,322.909152 858.949382,337.484848 870.522764,351.294364 C871.252945,361.054061 865.557527,369.354364 861.249455,377.599939 C858.383491,383.218606 855.280218,388.709576 852.012655,394.109333 C839.124945,396.225455 826.602327,400.165818 814.006691,403.485939 C802.980945,409.670121 789.910691,409.195818 778.410327,414.24897 C768.571127,404.744667 760.101018,393.981636 750.864218,383.966545 C743.270327,380.591697 734.617673,380.99303 726.476145,380.719394 C728.666691,369.70097 728.776218,358.445394 729.999273,347.317515 C731.003273,341.990727 733.248582,337.010545 734.544655,331.756727 C743.854473,325.426606 748.034764,314.827758 750.645164,304.338364 L750.645164,304.338364 Z" id="Shape" fill="#619800" sketch:type="MSShapeGroup"></path>
            <path d="M708.057309,308.680061 C720.160073,308.680061 732.262836,309.35503 744.383855,309.300303 C742.302836,317.399939 737.428873,324.459758 730.400873,329.020364 C729.050036,334.456606 726.950764,339.673939 725.508655,345.073697 C723.865745,357.186667 724.2856,369.591515 721.328364,381.540303 C711.762982,384.203697 702.763491,388.435939 693.3624,391.573636 C681.989818,394.620121 672.223636,401.552242 661.051855,405.146 C652.143636,407.772909 646.229164,415.234061 639.474982,421.071636 C628.978618,417.550848 618.482255,414.066545 607.967636,410.564 C608.004145,408.046545 608.058909,405.529091 608.168436,403.029879 C613.115418,400.366485 617.094909,396.353152 621.6768,393.160727 C627.426982,390.880424 634.181164,392.522242 639.840073,389.676424 C646.119636,386.666424 652.234909,383.291576 658.733527,380.719394 C660.394691,370.613091 660.504218,360.050727 656.689018,350.382242 C663.005091,347.317515 669.8688,345.803394 676.586473,343.960909 C681.880291,342.647455 685.312145,338.178061 689.090836,334.620788 C693.928291,329.640606 699.441164,325.408364 704.515927,320.683576 C707.984291,317.764788 707.400145,312.729879 708.057309,308.680061 L708.057309,308.680061 Z" id="Shape" fill="#619800" sketch:type="MSShapeGroup"></path>
            <path d="M585.806618,312.018424 C592.469527,310.832667 600.136436,307.658485 606.397745,311.836 C613.900364,317.126303 609.701818,330.479758 619.340218,333.544485 C625.729309,337.101758 633.231927,336.518 640.278182,337.174727 C644.787055,343.358909 649.825309,349.251212 653.439709,356.055636 C655.867564,362.860061 654.717527,370.266485 654.516727,377.344545 C645.152145,381.211939 636.609018,388.125818 625.911855,387.396121 C617.295709,388.527152 610.906618,381.722727 605.959636,375.702727 C592.998909,365.322788 586.901891,349.123515 582.356509,333.690424 C581.389018,326.320485 582.393018,318.676909 585.806618,312.018424 L585.806618,312.018424 Z" id="Shape" fill="#619800" sketch:type="MSShapeGroup"></path>
            <path d="M434.768509,332.431697 C437.013818,328.983879 439.277382,325.572545 441.540945,322.14297 C452.6032,322.635515 463.756727,325.499576 473.030036,331.702 C484.183564,338.743576 497.874473,334.03703 510.141527,336.864606 C517.534618,341.315758 526.4976,341.516424 534.3288,345.01897 C532.649382,352.206485 529.692145,359.904788 532.485091,367.238242 C534.602618,371.944788 537.413818,376.414182 540.7544,380.354545 C546.322036,384.513818 552.875418,387.01303 559.301018,389.494 C554.500073,393.817455 549.753891,398.177394 545.044218,402.610303 C536.811418,402.300182 528.596873,403.723091 520.364073,403.175818 C517.133018,403.650121 515.709164,400.457697 513.883709,398.524 C509.283564,392.504 502.8032,388.271758 496.030764,385.024606 C487.560655,380.755879 477.648436,382.872 468.776727,380.080909 C453.6072,375.191939 440.1536,366.326121 425.184873,360.962848 C420.310909,358.390667 417.043345,353.665879 412.936073,350.108606 C415.108364,343.06703 415.875055,333.726909 423.706255,330.516242 C427.430182,330.826364 431.062836,331.866182 434.768509,332.431697 L434.768509,332.431697 Z" id="Shape" fill="#619800" sketch:type="MSShapeGroup"></path>
            <path d="M538.965455,345.675697 C545.5736,344.161576 551.415055,339.856364 558.370036,339.819879 C565.398036,339.582727 572.444291,339.838121 579.490545,339.746909 C582.794618,351.805152 588.453527,363.224909 596.1752,373.075818 C603.038909,379.168788 608.916873,386.356303 616.510764,391.646606 C612.695564,394.620121 608.296218,396.809212 604.736582,400.092848 C601.888873,405.620303 603.8056,412.132848 603.6048,418.098121 C601.523782,418.681879 599.461018,419.283879 597.38,419.885879 C585.258982,414.10303 582.411273,399.326667 571.933164,391.756061 C563.554327,384.805697 552.528582,382.671333 543.456073,376.870242 C541.137745,372.820424 538.125745,369.09897 536.592364,364.666061 C535.022473,358.26297 537.651127,351.878121 538.965455,345.675697 L538.965455,345.675697 Z" id="Shape" fill="#619800" sketch:type="MSShapeGroup"></path>
            <path d="M394.152145,360.981091 C397.091127,357.040727 398.843564,352.425394 400.7968,347.974242 C402.987345,348.576242 405.177891,349.178242 407.386691,349.798485 C407.751782,350.564667 408.500218,352.115273 408.883564,352.881455 C413.702764,356.767091 417.335418,362.166848 422.866545,365.103879 C438.748,370.613091 452.895273,380.318061 469.105309,385.006364 C477.684945,387.469091 487.213818,385.553636 495.300582,389.840606 C502.584145,393.142485 508.936727,398.396303 513.098764,405.273697 C508.608145,410.564 504.756436,416.693455 503.880218,423.73503 C504.373091,435.77503 507.403345,447.468424 509.758182,459.234788 C505.778691,460.256364 501.7992,461.314424 497.837964,462.372485 C491.102036,458.778727 485.205818,453.470182 477.776218,451.335818 C470.784727,450.186545 463.848,452.247939 456.893018,452.685758 C446.013309,441.886242 434.732,431.506303 423.907055,420.652061 C420.931564,421.728364 418.047345,423.005333 415.236145,424.41 C403.078618,414.394909 387.470982,410.290364 373.506255,403.504182 C377.175418,388.016364 384.586764,373.641333 394.152145,360.981091 L394.152145,360.981091 Z" id="Shape" fill="#619800" sketch:type="MSShapeGroup"></path>
            <path d="M312.262255,384.313152 C326.792873,379.387697 342.053673,383.784121 356.876364,384.769212 C356.328727,390.314909 356.109673,395.915333 357.332727,401.406303 C368.230691,406.660121 379.566764,410.928848 390.537745,416.018485 C397.091127,419.137939 404.392945,421.217576 409.924073,426.124788 C413.337673,432.108303 415.126618,438.858 418.029091,445.096909 C423.341164,457.501758 429.876291,469.359333 434.914545,481.891879 C434.056582,482.858727 432.358909,484.774182 431.500945,485.74103 C432.139855,494.716303 433.216873,503.728061 435.809018,512.37497 C434.640727,512.302 432.285891,512.137818 431.099345,512.064848 C429.9128,510.131152 428.726255,508.215697 427.521455,506.318485 C426.389673,508.288667 425.257891,510.258848 424.162618,512.247273 C418.521964,507.905576 412.899564,503.545636 406.674764,500.061333 C386.996364,488.787515 369.581527,474.157091 351.692073,460.329333 C352.586545,457.848364 353.462764,455.367394 354.357236,452.886424 C350.925382,448.198121 347.475273,443.509818 343.988655,438.876242 C340.100436,440.390364 336.248727,441.995697 332.397018,443.582788 C331.484291,437.398606 330.845382,431.068485 328.399273,425.249152 C322.959418,411.622061 317.592582,397.958485 312.262255,384.313152 L312.262255,384.313152 Z" id="Shape" fill="#619800" sketch:type="MSShapeGroup"></path>
            <path d="M693.636218,396.371394 C706.998545,392.613455 719.521164,383.911818 733.942255,385.498909 C738.597164,385.918485 743.3616,386.265091 747.833964,387.724485 C756.650909,396.991636 764.536873,407.170909 773.810182,416.036727 C763.970982,419.922364 754.095273,424.136364 743.3616,424.446485 C729.542909,428.952364 715.322618,432.509636 702.088073,438.657333 C692.924291,442.907818 682.701745,444.367212 673.848291,449.365636 C655.319927,457.355818 639.274182,469.888364 623.630036,482.420909 C617.076655,477.349515 614.703564,469.103939 610.815345,462.153576 C607.839855,455.768727 602.728582,450.387212 600.9944,443.473333 C600.410255,439.697152 605.119927,439.970788 607.657309,439.715394 C613.863855,439.168121 621.165673,440.700485 626.258691,436.194606 C629.946109,433.056909 633.907345,430.284061 638.051127,427.784848 C646.831564,422.275636 652.673018,412.497697 662.968582,409.396485 C673.519709,405.839212 682.829527,399.308424 693.636218,396.371394 L693.636218,396.371394 Z" id="Shape" fill="#619800" sketch:type="MSShapeGroup"></path>
            <path d="M549.151491,404.945333 C554.098473,400.494182 559.008945,396.006545 563.864655,391.445939 C575.237236,397.703091 579.563564,410.509273 588.270982,419.393333 C592.086182,422.512788 597.233964,425.778182 602.290473,423.516121 C606.251709,423.023576 607.365236,418.791333 609.2272,415.945515 C617.624291,418.846061 626.076145,421.673636 634.564509,424.33703 C629.690545,427.310545 625.455491,431.159697 620.636291,434.169697 C612.166182,435.683818 601.359491,432.454909 595.700582,440.901152 C588.873382,443.309152 580.677091,443.765212 573.904655,440.627515 C568.4648,438.511394 563.718618,435.045333 558.461309,432.527879 C557.877164,428.405091 557.913673,424.209333 557.0192,420.141273 C554.518327,415.015152 551.634109,410.071455 549.151491,404.945333 L549.151491,404.945333 Z" id="Shape" fill="#619800" sketch:type="MSShapeGroup"></path>
            <path d="M508.754182,423.114788 C509.794691,417.058303 513.263055,411.877455 517.698909,407.754667 C526.880945,408.411394 536.062982,407.48103 545.263273,407.718182 C547.5816,412.534182 550.429309,417.094788 552.6016,421.983758 C553.368291,426.74503 553.861164,431.579273 553.842909,436.395273 C551.469818,440.463333 549.078473,445.133394 544.405309,446.939394 C538.125745,449.949394 532.7224,454.345818 527.538109,458.942909 C523.157018,458.486848 518.757673,458.304424 514.376582,458.176727 C512.514618,446.483333 508.243055,435.063576 508.754182,423.114788 L508.754182,423.114788 Z" id="Shape" fill="#619800" sketch:type="MSShapeGroup"></path>
            <path d="M416.842545,429.882727 C418.631491,428.405091 420.420436,426.945697 422.227636,425.486303 C433.271636,436.285818 444.461673,446.957636 455.596945,457.684182 C462.533673,457.52 469.324364,455.002545 476.279345,455.768727 C483.654182,458.122 489.805964,463.138667 496.249818,467.279697 C505.523127,465.072364 514.832945,462.518424 524.4896,463.266364 C529.034982,469.103939 534.310545,474.357758 538.673382,480.32303 C538.965455,485.485636 536.866182,490.794182 534.182764,495.154121 C528.724655,500.170788 521.185527,503.272 518.155273,510.56897 C509.411345,506.792788 501.142036,501.922061 492.069527,498.930303 C475.019782,493.056242 457.276364,489.371273 440.317891,483.187091 C433.417673,464.999394 423.414182,448.198121 416.842545,429.882727 L416.842545,429.882727 Z" id="Shape" fill="#619800" sketch:type="MSShapeGroup"></path>
            <path d="M559.0272,437.781697 C565.617091,442.050424 572.626836,446.191455 580.5128,447.340727 C585.843127,447.687333 591.136945,446.811697 596.430764,446.319152 C598.822109,450.898 601.432509,455.349152 604.188945,459.727333 C609.519273,468.410727 612.257455,478.845394 620.0704,485.832242 C617.879855,487.565273 615.689309,489.280061 613.498764,491.031333 C610.724073,484.391091 607.657309,477.477212 601.943636,472.807152 C597.909382,469.249879 592.688582,467.608061 587.814618,465.583152 C583.159709,470.727515 579.180218,476.473879 574.178473,481.289879 C569.888655,483.296545 564.722618,482.931697 560.706618,485.631576 C558.753382,489.462485 560.049455,493.840667 560.122473,497.92697 C553.477818,497.452667 546.887927,496.285152 540.699636,493.749455 C541.831418,489.663152 542.9632,485.576848 543.985455,481.472303 C549.315782,479.611576 555.120727,478.790667 559.939927,475.634727 C565.580582,472.205152 568.647345,466.093939 571.458545,460.365818 C565.744873,454.911333 558.935927,450.82503 553.167491,445.425273 C555.102473,442.871333 557.055709,440.317394 559.0272,437.781697 L559.0272,437.781697 Z" id="Shape" fill="#619800" sketch:type="MSShapeGroup"></path>
            <path d="M530.075491,462.86503 C536.026473,457.337576 542.5616,452.339152 550.228509,449.456848 C555.321527,453.725576 560.852655,457.410545 566.0552,461.533333 C562.951927,466.166909 559.720873,471.402485 554.189745,473.390909 C550.246764,474.740848 546.194255,475.689455 542.251273,477.021152 C538.107491,472.369333 534.018473,467.68103 530.075491,462.86503 L530.075491,462.86503 Z" id="Shape" fill="#619800" sketch:type="MSShapeGroup"></path>
            <path d="M575.857891,486.069394 C580.969164,481.691212 584.820873,476.036061 589.055927,470.855212 C593.546545,472.989576 598.329236,475.032727 601.669818,478.900121 C605.923127,483.953273 608.095418,490.301636 610.432,496.394606 C600.538036,501.885576 592.286982,509.875758 581.954909,514.618788 C578.066691,512.739818 574.178473,510.258848 573.941164,505.479333 C571.239491,504.001697 568.537818,502.560545 565.836145,501.101152 C565.252,496.905394 564.6496,492.709636 564.211491,488.495636 C568.081455,487.674727 572.0792,487.309879 575.857891,486.069394 L575.857891,486.069394 Z" id="Shape" fill="#619800" sketch:type="MSShapeGroup"></path>
            <path d="M436.502691,486.94503 C462.223345,496.084485 489.769455,500.353212 513.865455,513.761394 C514.778182,514.910667 515.709164,516.059939 516.640145,517.209212 C508.078764,520.438121 500.922982,528.172909 491.229818,527.607394 C487.797964,526.385152 485.114545,523.81297 482.230327,521.696848 C481.737455,522.846121 480.751709,525.108182 480.258836,526.257455 C474.818982,521.970485 467.4624,519.690182 461.602691,524.706848 C456.527927,519.142909 451.854764,513.323576 448.1856,506.738061 C448.934036,512.97697 451.507927,518.814545 455.742982,523.466364 C454.027055,525.436545 452.329382,527.42497 450.613455,529.395152 C447.072073,525.546 443.402909,521.824545 439.733745,518.103091 C440.591709,507.55897 436.520945,497.470909 436.502691,486.94503 L436.502691,486.94503 Z" id="Shape" fill="#619800" sketch:type="MSShapeGroup"></path>
            <path d="M525.8952,507.394788 C529.874691,503.94697 534.383564,501.155879 538.472582,497.817515 C545.956945,501.210606 554.098473,502.159212 562.203491,502.74297 C563.353527,512.539152 562.294764,522.371818 561.327273,532.131515 C558.406545,528.063455 555.504073,523.885939 551.287273,521.058364 C550.703127,520.05503 549.516582,518.048364 548.932436,517.04503 C548.403055,518.212545 547.344291,520.529333 546.814909,521.678606 C548.3848,525.01697 549.936436,528.373576 551.323782,531.803152 C544.021964,529.723515 540.261527,522.499515 534.109745,518.613879 C530.367564,517.154485 526.278545,517.227455 522.353818,516.698424 C523.339564,513.57897 523.175273,509.656848 525.8952,507.394788 L525.8952,507.394788 Z" id="Shape" fill="#619800" sketch:type="MSShapeGroup"></path>
            <path d="M510.159782,529.285697 C515.526618,527.461455 522.226036,525.363576 527.246036,529.048545 C532.339055,532.24097 537.851927,535.85297 539.896436,541.818242 C537.121745,544.554606 533.9272,546.798424 530.896945,549.224667 C538.290036,551.213091 545.810909,552.781939 553.459564,553.292727 C553.733382,555.609515 554.0072,557.926303 554.262764,560.261333 C553.350036,560.826848 551.524582,561.957879 550.611855,562.541636 C547.818909,567.503576 544.697382,572.319576 540.681382,576.424121 C541.028218,573.432364 541.521091,570.477091 542.068727,567.521818 C540.480582,566.573212 538.874182,565.642848 537.286036,564.730727 C536.391564,569.108909 535.588364,573.505333 534.949455,577.938242 C532.503345,577.500424 530.038982,577.080848 527.592873,576.679515 C526.479345,579.762485 525.365818,582.845455 524.252291,585.928424 C521.8792,587.351333 519.506109,588.792485 517.151273,590.251879 C514.595636,588.354667 512.021745,586.512182 509.447855,584.651455 C507.567636,579.397636 505.358836,573.63303 500.338836,570.62303 C495.976,567.831939 493.292582,563.088909 488.728945,560.607939 C478.634182,554.806848 467.717964,548.732121 461.949527,538.133273 C463.793236,534.886121 467.809236,535.889455 470.912509,535.907697 C479.546909,536.892788 487.889236,539.519697 496.505382,540.741939 C503.369091,541.435152 509.520873,544.73703 515.690909,547.564606 C515.946473,546.743697 516.475855,545.101879 516.731418,544.262727 C510.6344,542.584424 502.711927,540.833152 500.539636,534.04697 C502.821455,531.000485 506.855709,530.599152 510.159782,529.285697 L510.159782,529.285697 Z" id="Shape" fill="#619800" sketch:type="MSShapeGroup"></path>
        </g>
    </g>
</svg>